{"title":"Pink.Floyd.The.Wall.1982.720p.HDTV.x265-Spidey33","uid":11198224,"size":989003309,"categoryP":"video","categoryS":"hd___movies","magnet":"?xt=urn:btih:61f7b79ad4ebee6e0fe5a2c1955a83117c7289f9&amp;dn=Pink.Floyd.The.Wall.1982.720p.HDTV.x265-Spidey33&amp;tr=udp%3A%2F%2Ftracker.openbittorrent.com%3A80&amp;tr=udp%3A%2F%2Fopen.demonii.com%3A1337&amp;tr=udp%3A%2F%2Ftracker.coppersurfer.tk%3A6969&amp;tr=udp%3A%2F%2Fexodus.desync.com%3A6969","seeders":18,"leechers":2,"uploader":"cannedsam","files":1,"time":1413129553,"description":"Pink.Floyd.The.Wall.1982.720p.HDTV.x265-Spidey33\nEncoded with x265 with 2 pass and Medium preset :)\nUse the latest nightly version of VLC or MPC-HC to play back!\nBest Copy Of This Film!\n\nEncoded by Spidey33\n\nGeneral\nComplete name : Pink.Floyd.The.Wall.1982.720p.HDTV.x265-Spidey33.mkv\nFormat : Matroska\nFormat version : Version 4 / Version 2\nFile size : 943 MiB\nDuration : 1h 35mn\nOverall bit rate : 1 386 Kbps\nEncoded date : UTC 2014-10-12 12:37:40\nWriting application : mkvmerge v7.2.0 ('On Every Street') 64bit built on Sep 13 2014 15:52:10\nWriting library : libebml v1.3.0 + libmatroska v1.4.1\nDURATION : 01:33:22.670000000\nNUMBER_OF_FRAMES : 565\nNUMBER_OF_BYTES : 28344\n_STATISTICS_WRITING_APP : mkvmerge v7.2.0 ('On Every Street') 64bit built on Sep 13 2014 15:52:10\n_STATISTICS_WRITING_DATE_UTC : 2014-10-12 12:37:40\n_STATISTICS_TAGS : BPS DURATION NUMBER_OF_FRAMES NUMBER_OF_BYTES\n\nVideo\nID : 1\nFormat : HEVC\nFormat/Info : High Efficiency Video Coding\nCodec ID : V_MPEGH/ISO/HEVC\nDuration : 1h 35mn\nBit rate : 975 Kbps\nWidth : 1 280 pixels\nHeight : 536 pixels\nDisplay aspect ratio : 2.40:1\nFrame rate mode : Constant\nFrame rate : 23.976 fps\nBits/(Pixel*Frame) : 0.059\nStream size : 663 MiB (70%)\nLanguage : English\nDefault : Yes\nForced : No\n\nAudio\nID : 2\nFormat : AC-3\nFormat/Info : Audio Coding 3\nMode extension : CM (complete main)\nFormat settings, Endianness : Big\nCodec ID : A_AC3\nDuration : 1h 35mn\nBit rate mode : Constant\nBit rate : 384 Kbps\nChannel(s) : 6 channels\nChannel positions : Front: L C R, Side: L R, LFE\nSampling rate : 48.0 KHz\nBit depth : 16 bits\nCompression mode : Lossy\nStream size : 261 MiB (28%)\nLanguage : English\nDefault : Yes\nForced : No\n\nText\nID : 3\nFormat : ASS\nCodec ID : S_TEXT/ASS\nCodec ID/Info : Advanced Sub Station Alpha\nCompression mode : Lossless\nLanguage : English\nDefault : No\nForced : No","torrent":{"xt":"urn:btih:61f7b79ad4ebee6e0fe5a2c1955a83117c7289f9","amp;dn":"Pink.Floyd.The.Wall.1982.720p.HDTV.x265-Spidey33","amp;tr":["udp%3A%2F%2Ftracker.openbittorrent.com%3A80","udp%3A%2F%2Fopen.demonii.com%3A1337","udp%3A%2F%2Ftracker.coppersurfer.tk%3A6969","udp%3A%2F%2Fexodus.desync.com%3A6969"],"infoHash":"61f7b79ad4ebee6e0fe5a2c1955a83117c7289f9","infoHashBuffer":{"type":"Buffer","data":[97,247,183,154,212,235,238,110,15,229,162,193,149,90,131,17,124,114,137,249]},"announce":[],"urlList":[]}}